<svg width="18" height="20" viewBox="0 0 18 20" fill="none" xmlns="http://www.w3.org/2000/svg">
    <path fill-rule="evenodd" clip-rule="evenodd" d="M0.36546 9.71577C-0.271964 7.07686 2.13362 4.83742 4.6897 5.25527C7.67488 5.74327 10.2539 5.7579 13.3285 5.25927C15.8861 4.84447 18.3012 7.08631 17.6626 9.72982L15.8987 17.0324C15.5134 18.6276 14.0839 19.7501 12.4423 19.7501H5.5892C3.94757 19.7501 2.51809 18.6276 2.13277 17.0324L0.36546 9.71577ZM4.4477 6.73562C2.82222 6.4699 1.46791 7.89134 1.82353 9.36358L3.59084 16.6802C3.81306 17.6002 4.63847 18.2501 5.5892 18.2501H12.4423C13.393 18.2501 14.2184 17.6002 14.4406 16.6802L16.2046 9.37763C16.5606 7.90345 15.2 6.47535 13.5686 6.73993C10.3323 7.26478 7.59046 7.24938 4.4477 6.73562Z" fill="white"/>
    <path fill-rule="evenodd" clip-rule="evenodd" d="M8.50001 1.75C6.98123 1.75 5.75001 2.98121 5.75001 4.5L5.75 8.83231C5.75 9.24652 5.41421 9.58231 5 9.58231C4.58579 9.58231 4.25 9.24652 4.25 8.8323L4.25001 4.49999C4.25001 2.15279 6.1528 0.25 8.50001 0.25H9.5C11.8472 0.25 13.75 2.15279 13.75 4.5V9C13.75 9.41421 13.4142 9.75 13 9.75C12.5858 9.75 12.25 9.41421 12.25 9V4.5C12.25 2.98122 11.0188 1.75 9.5 1.75H8.50001Z" fill="white"/>
</svg>
