<svg width="127" height="64" viewBox="0 0 127 64" fill="none" xmlns="http://www.w3.org/2000/svg">
    <g clip-path="url(#clip0)">
        <path d="M30.5317 52.8787C28.6239 52.8818 26.7631 52.2963 25.211 51.2047C23.4987 49.9562 22.1838 48.2528 21.4207 46.2945C20.4758 43.8743 20.0234 41.295 20.0893 38.7031C20.0893 33.3126 20.999 28.6496 22.7852 24.8446C24.6093 20.965 27.1156 18.0086 30.2379 16.0501C33.3257 14.1009 36.9219 13.0755 40.5903 13.0984C42.9864 13.0351 45.364 13.527 47.5313 14.5346C49.4062 15.4235 50.9794 16.8276 52.0608 18.5775C53.0886 20.3094 53.6176 22.2842 53.5911 24.2897C53.6093 26.699 52.9342 29.0642 51.6439 31.1117C50.2627 33.2425 48.3297 34.9728 46.0436 36.1244C43.8182 37.2579 41.3961 37.9697 38.9036 38.2228L37.4301 46.2152C36.9942 48.7053 35.4923 52.8787 30.5317 52.8787ZM27.7695 36.5581C27.7363 37.155 27.7221 37.7612 27.7221 38.3813C27.7043 39.6593 27.8492 40.9345 28.1532 42.1771C28.3234 42.8821 28.5895 43.5613 28.9445 44.1962C28.9919 44.005 29.0439 43.7811 29.0961 43.5107L30.0863 37.943C29.6323 37.8795 29.1957 37.7276 28.802 37.4962C28.4083 37.2648 28.0653 36.9586 27.7931 36.5954L27.7695 36.5581ZM32.9812 22.9514C31.2644 24.594 29.9769 26.621 29.2287 28.8595C28.9032 29.7614 28.6326 30.6816 28.4185 31.6153C29.0543 31.134 29.8388 30.8822 30.6406 30.9019C30.859 30.8995 31.0774 30.9104 31.2945 30.9345C31.5977 29.1952 31.9862 27.0688 32.4647 24.4762C32.5588 23.9487 32.7363 23.4389 32.9907 22.9654L32.9812 22.9514ZM37.3022 20.7318C38.2957 20.6924 39.2712 21.0014 40.0549 21.6038C40.447 21.9485 40.7554 22.3755 40.9572 22.8534C41.1589 23.3312 41.2489 23.8476 41.2204 24.3643C41.2272 24.8037 41.1891 25.2427 41.1067 25.6746L40.2444 30.692C43.1724 29.7594 44.5085 27.8522 44.5085 24.6301C44.5336 24.0876 44.4414 23.5461 44.238 23.0413C44.0347 22.5365 43.7248 22.0799 43.3288 21.7017C42.5281 20.951 41.1541 20.5686 39.2495 20.5686C38.5991 20.5637 37.9499 20.623 37.3116 20.7458L37.3022 20.7318Z" fill="#ED1C2B"/>
        <path d="M40.5941 14.7305C42.7314 14.6679 44.8539 15.099 46.7913 15.9895C48.3832 16.74 49.7197 17.9289 50.6385 19.4122C51.5149 20.8912 51.9638 22.5778 51.9367 24.2897C51.9534 26.3966 51.3619 28.4647 50.2311 30.2537C49.0034 32.1413 47.286 33.6722 45.2563 34.6882C42.8418 35.8993 40.193 36.5907 37.4861 36.7166L35.8136 45.9308C35.1819 49.4747 33.4209 51.2466 30.5308 51.2466C28.9614 51.2444 27.4327 50.7548 26.1624 49.8477C24.7068 48.7801 23.5935 47.3234 22.9549 45.651C22.0929 43.4324 21.6839 41.0682 21.7514 38.6938C21.7514 33.5178 22.5995 29.1268 24.2957 25.5207C25.9919 21.9147 28.2708 19.2132 31.1325 17.4164C33.9564 15.6274 37.2502 14.6906 40.6084 14.7212L40.5941 14.7305ZM29.2515 46.467C29.8833 46.467 30.3744 45.5873 30.725 43.8278L32.009 36.6001L30.6682 36.4042C29.8912 36.2783 29.3842 36.0405 29.1521 35.6954C28.9042 35.2998 28.782 34.8402 28.8014 34.3758C28.7743 33.8857 28.9446 33.4049 29.2752 33.0375C29.4513 32.8676 29.6616 32.7359 29.8925 32.6508C30.1234 32.5656 30.3699 32.529 30.6161 32.5432C30.811 32.5397 31.006 32.5522 31.1988 32.5805C31.8195 32.6831 32.298 32.7484 32.6202 32.7717C32.955 30.7853 33.4288 28.1212 34.0416 24.7793C34.0768 24.4123 34.1899 24.0567 34.3735 23.7354C34.5572 23.4141 34.8072 23.1343 35.1076 22.9141C35.6885 22.5362 36.373 22.3425 37.0691 22.3592C37.7212 22.3005 38.3739 22.4653 38.9169 22.8255C39.1176 23.0213 39.2722 23.2581 39.3696 23.5192C39.467 23.7803 39.505 24.0592 39.4807 24.3363C39.4867 24.6692 39.4597 25.0018 39.4002 25.3296L38.1873 32.7577C43.4937 32.0956 46.1486 29.3802 46.1517 24.6115C46.1796 23.8481 46.0434 23.0875 45.7519 22.3795C45.4605 21.6716 45.0203 21.0322 44.4603 20.5033C43.3327 19.4464 41.5954 18.9179 39.2486 18.9179C36.6928 18.8767 34.2108 19.7612 32.2743 21.4033C30.2939 23.0571 28.7667 25.3575 27.6928 28.3046C26.5673 31.5449 26.0207 34.9527 26.0771 38.3767C26.0528 39.7897 26.212 41.2001 26.5509 42.5734C26.7788 43.5915 27.2 44.5582 27.7923 45.4225C28.2992 46.0986 28.7825 46.4391 29.2515 46.4391V46.467ZM40.5941 11.4384C36.6149 11.4255 32.7174 12.5496 29.3747 14.6745C25.9824 16.8009 23.2676 19.995 21.3203 24.1591C19.4251 28.1833 18.4775 33.0748 18.4775 38.7031C18.3963 41.5088 18.8794 44.3026 19.8989 46.924C20.7799 49.1615 22.2943 51.1034 24.2625 52.5196C26.0914 53.8048 28.2837 54.493 30.5308 54.4874C31.6153 54.5111 32.6933 54.3166 33.6986 53.9157C34.704 53.5148 35.6156 52.9159 36.3774 52.1559C37.7277 50.799 38.6374 48.8918 39.078 46.467L40.3193 39.631C42.59 39.2825 44.7875 38.5705 46.8245 37.5233C49.3658 36.2326 51.514 34.3018 53.0501 31.9277C54.5066 29.6221 55.2704 26.9579 55.2533 24.2431C55.2778 21.95 54.6686 19.6935 53.4908 17.7148C52.2468 15.6984 50.4369 14.079 48.2791 13.0518C45.8789 11.9313 43.2452 11.3803 40.5894 11.4431L40.5941 11.4384ZM42.7309 25.8938C42.7309 25.8332 42.7309 25.7725 42.7641 25.7073C42.7641 25.8425 42.7215 25.9777 42.693 26.1036L42.7309 25.8938Z" fill="white"/>
        <path d="M55.8649 28.3653C54.5613 28.4394 53.2788 28.0169 52.2831 27.1855C51.8391 26.7647 51.4903 26.2565 51.2593 25.6941C51.0283 25.1317 50.9202 24.5277 50.9423 23.9214C50.9357 23.2567 51.0808 22.5991 51.367 21.997C51.6532 21.3949 52.0731 20.8638 52.5958 20.4428C53.6387 19.5792 54.9668 19.1214 56.3293 19.1558C57.5365 19.1054 58.725 19.4624 59.6979 20.1677C60.1937 20.556 60.5894 21.054 60.8529 21.6212C61.1163 22.1883 61.2401 22.8087 61.2141 23.4318C61.2349 24.1127 61.1065 24.79 60.8375 25.4176C60.5685 26.0452 60.1653 26.6084 59.6553 27.0689C58.6061 27.9611 57.2501 28.4249 55.8649 28.3653Z" fill="#ED1C2B"/>
        <path d="M56.3287 20.769C57.1623 20.7302 57.9844 20.972 58.6597 21.4545C58.9603 21.6883 59.1988 21.9902 59.3548 22.3346C59.5107 22.6789 59.5795 23.0554 59.5552 23.4316C59.5767 23.8838 59.4975 24.335 59.3232 24.7539C59.1489 25.1727 58.8836 25.549 58.546 25.8564C57.8015 26.482 56.8422 26.804 55.8644 26.7564C54.9811 26.8238 54.105 26.557 53.4149 26.0103C53.1309 25.7375 52.9101 25.4075 52.7678 25.0429C52.6256 24.6783 52.565 24.2877 52.5905 23.8979C52.5834 23.4698 52.6762 23.0458 52.8619 22.6586C53.0475 22.2713 53.321 21.9312 53.6612 21.6643C54.4043 21.0523 55.3508 20.7318 56.3192 20.7644L56.3287 20.769ZM56.3192 17.5003C54.5563 17.4712 52.8425 18.0726 51.496 19.1929C50.7967 19.7679 50.2349 20.4878 49.8508 21.3011C49.4667 22.1144 49.2697 23.0011 49.2739 23.8979C49.2497 24.7336 49.4062 25.5648 49.7329 26.3365C50.0596 27.1083 50.5491 27.8029 51.1691 28.3744C52.3441 29.4469 53.9266 29.9925 55.8786 29.9925C57.6809 30.0435 59.4355 29.4185 60.7871 28.2439C61.4635 27.6348 61.9996 26.8901 62.3592 26.0601C62.7188 25.23 62.8936 24.3337 62.8718 23.4316C62.8912 22.5649 62.7057 21.7055 62.3299 20.9214C61.9542 20.1372 61.3984 19.4497 60.7065 18.9132C59.4528 17.9677 57.9076 17.4739 56.3287 17.5142L56.3192 17.5003Z" fill="white"/>
        <path d="M97.1601 48.8965C94.3837 48.8965 92.1379 48.0945 90.4701 46.4997C89.8907 46.8889 89.2826 47.2349 88.6508 47.5349C86.9009 48.4 84.9753 48.8654 83.0174 48.8965C80.1178 48.8965 77.8057 48.0758 76.0763 46.4484C75.6594 46.7189 75.2235 46.9847 74.7592 47.2365C72.8018 48.3328 70.5867 48.9052 68.3346 48.8965C65.3639 48.8965 62.957 48.1131 61.1708 46.565C59.2756 48.1178 57.3805 48.8965 55.5516 48.8965C52.7089 48.8965 51.2307 47.5303 50.4868 46.3878C49.5392 44.9656 49.0654 43.0957 49.0654 40.8435C49.1005 39.2794 49.2589 37.7204 49.5392 36.1805C49.8256 34.4136 50.2244 32.6662 50.7332 30.9486C50.9491 29.9822 51.4718 29.1085 52.2256 28.4538C53.0657 27.8607 54.0887 27.5723 55.1205 27.6378C57.8022 27.6378 58.7592 29.1533 58.7592 30.5708C58.7592 31.0931 58.6692 32.105 57.9869 35.3365C57.2431 38.6752 57.0915 40.0974 57.0915 40.7036C57.0836 40.8589 57.0836 41.0146 57.0915 41.1699C57.1768 41.0999 57.2763 41.016 57.3947 40.9088C57.6032 40.7222 57.8401 40.4891 58.1101 40.2093C58.0817 39.8596 58.0675 39.5005 58.0675 39.1275C58.0559 37.1788 58.4984 35.2534 59.3609 33.4992C60.1868 31.7876 61.4586 30.3219 63.047 29.2512C64.6617 28.1693 66.5756 27.6027 68.5288 27.6285C69.405 27.5971 70.2787 27.739 71.0982 28.0458C71.9177 28.3525 72.6664 28.8179 73.2999 29.4144C74.2423 30.335 74.8572 31.5306 75.0529 32.8231C75.905 31.3448 77.1019 30.087 78.5448 29.1533C80.0438 28.1691 81.803 27.6389 83.6049 27.6285C85.0146 27.5479 86.4056 27.9776 87.5157 28.8365C88.6258 29.6954 89.3783 30.9243 89.6315 32.2915C90.4122 31.0862 91.4343 30.0501 92.6354 29.2465C94.2386 28.1745 96.1363 27.6099 98.0745 27.6285C98.958 27.5821 99.8415 27.7192 100.668 28.0309C101.494 28.3426 102.244 28.8218 102.87 29.4375C103.495 30.0532 103.982 30.7916 104.299 31.6046C104.615 32.4177 104.755 33.2872 104.708 34.1567C104.722 35.5288 104.368 36.8803 103.679 38.0737H103.788C104.23 38.0727 104.664 38.1843 105.048 38.3975C105.433 38.6108 105.754 38.9186 105.982 39.2907C106.368 39.9367 106.559 40.6775 106.532 41.4264C106.552 42.5829 106.223 43.7193 105.584 44.6905C104.72 46.0037 103.527 47.0763 102.121 47.8054C100.581 48.558 98.8789 48.9323 97.1601 48.8965ZM82.2451 35.7328C82.1288 35.9641 82.0275 36.2024 81.9419 36.4462C81.6848 37.2228 81.5599 38.0358 81.5723 38.8524C81.5723 41.445 82.6431 41.6502 83.8371 41.6502C84.7611 41.6005 85.656 41.3144 86.4334 40.8202C86.8722 40.5687 87.289 40.2817 87.6795 39.9622C87.6795 39.6824 87.6795 39.398 87.6795 39.1135C87.6795 38.8291 87.6795 38.6752 87.6795 38.4607C87.0482 38.9051 86.2904 39.1417 85.5143 39.1368C84.7227 39.162 83.946 38.9219 83.3112 38.456C82.9664 38.1891 82.689 37.8474 82.5008 37.4575C82.3126 37.0676 82.2186 36.6401 82.2262 36.2085C82.2236 36.0497 82.23 35.8909 82.2451 35.7328ZM73.3189 39.2254C73.1436 39.4353 72.954 39.6404 72.755 39.8363C72.0764 40.4855 71.3075 41.0366 70.4714 41.473C70.9802 41.2869 71.4742 41.0641 71.9496 40.8062C72.4286 40.5506 72.8878 40.2607 73.3236 39.9389C73.3236 39.8083 73.3236 39.6777 73.3236 39.5425L73.3189 39.2254ZM67.7186 34.6557C67.5386 34.6976 67.2448 34.8608 66.8611 35.481C66.731 35.7038 66.6185 35.9361 66.5247 36.1758C66.6905 36.0734 66.8488 35.9596 66.9985 35.8354C67.2038 35.7078 67.3759 35.5346 67.501 35.3298C67.6261 35.1249 67.7006 34.894 67.7186 34.6557ZM97.288 34.6557C97.108 34.6976 96.8142 34.8608 96.4257 35.4857C96.2957 35.7084 96.1832 35.9407 96.0893 36.1805C96.2551 36.078 96.4134 35.9643 96.5631 35.8401C96.7703 35.7118 96.9439 35.5373 97.0699 35.3308C97.1958 35.1242 97.2705 34.8913 97.288 34.651V34.6557Z" fill="#ED1C2B"/>
        <path d="M98.0752 29.2558C98.7368 29.2263 99.3977 29.328 100.019 29.5547C100.64 29.7813 101.208 30.1285 101.69 30.5754C102.153 31.0484 102.513 31.6098 102.747 32.2249C102.981 32.8401 103.084 33.496 103.05 34.1519C103.06 34.9965 102.894 35.8342 102.564 36.6136C102.233 37.393 101.744 38.0977 101.126 38.6844C99.8408 39.9279 97.6582 40.9273 94.5786 41.6827C94.8679 42.2488 95.3212 42.7178 95.881 43.0307C96.4409 43.3435 97.0824 43.4862 97.7246 43.4407C98.6552 43.4795 99.5743 43.2264 100.349 42.7179C101.248 42.0117 102.045 41.1881 102.718 40.2698C102.836 40.1 102.992 39.9596 103.175 39.86C103.358 39.7604 103.561 39.7043 103.77 39.6963C103.933 39.6957 104.094 39.7388 104.234 39.8209C104.374 39.9031 104.489 40.0212 104.566 40.1626C104.779 40.5495 104.879 40.9869 104.855 41.4263C104.879 42.2627 104.65 43.0872 104.197 43.7951C103.489 44.8768 102.51 45.7603 101.354 46.3597C100.047 47.0055 98.599 47.3257 97.1371 47.2923C94.6544 47.2923 92.7245 46.5603 91.3473 45.0961C91.111 44.8404 90.8926 44.5693 90.6935 44.2847C89.8537 45.0074 88.9181 45.6145 87.9123 46.0893C86.3863 46.8505 84.7049 47.2618 82.9943 47.2923C80.4674 47.2923 78.4933 46.5851 77.0719 45.1707C76.7936 44.8942 76.54 44.5947 76.3139 44.2754C75.5683 44.8595 74.7761 45.3835 73.9449 45.8421C72.2346 46.8007 70.2986 47.3007 68.3305 47.2923C65.6109 47.2923 63.4994 46.5665 61.9959 45.1147C61.7313 44.857 61.4873 44.5795 61.2662 44.2847C59.2479 46.296 57.3417 47.2986 55.5476 47.2923C53.8656 47.2923 52.6432 46.7095 51.8804 45.5344C51.1176 44.3593 50.7338 42.8065 50.7338 40.8714C50.7652 39.3902 50.9141 37.9138 51.1792 36.4555C51.4534 34.7563 51.8364 33.0758 52.3258 31.4241C52.4612 30.7828 52.7917 30.1973 53.2734 29.7454C53.8243 29.3909 54.4793 29.2269 55.1354 29.2791C56.4557 29.2791 57.1158 29.7128 57.1158 30.5801C56.983 32.0741 56.7375 33.5564 56.3814 35.0146C55.7497 37.8124 55.4339 39.7118 55.4339 40.7128C55.4035 41.314 55.5087 41.9143 55.7418 42.4708C55.8341 42.6652 55.9839 42.8275 56.1716 42.9366C56.3593 43.0456 56.5762 43.0962 56.7936 43.0816C57.2674 43.0816 57.8407 42.7646 58.5419 42.1257C58.9162 41.7853 59.3568 41.3377 59.8638 40.7874C59.7823 40.244 59.7427 39.6953 59.7454 39.1461C59.7319 37.4442 60.1178 35.7622 60.873 34.2312C61.5711 32.7749 62.6504 31.5276 64 30.6174C65.3334 29.7257 66.9128 29.2585 68.5247 29.2791C69.1864 29.2496 69.8473 29.3513 70.4683 29.578C71.0893 29.8047 71.6577 30.1518 72.1398 30.5987C72.6029 31.0717 72.9625 31.6331 73.1964 32.2483C73.4302 32.8635 73.5334 33.5193 73.4996 34.1753C73.5094 35.0198 73.3439 35.8575 73.0131 36.6369C72.6824 37.4163 72.1933 38.121 71.576 38.7077C70.2904 39.9512 68.1204 40.9506 65.0661 41.706C65.7152 42.8811 66.9612 43.464 68.7569 43.464C70.1657 43.3935 71.5348 42.9801 72.7415 42.2609C73.5614 41.8221 74.3303 41.2968 75.0346 40.6942C74.9922 40.3195 74.9717 39.9427 74.973 39.5657C74.9308 37.6834 75.3587 35.8196 76.2191 34.138C76.9531 32.6815 78.0644 31.4414 79.4409 30.5428C80.6714 29.7288 82.1182 29.2893 83.6008 29.2791C84.2116 29.2445 84.8229 29.3376 85.3945 29.5522C85.9661 29.7668 86.4851 30.098 86.9174 30.5241C87.7235 31.3845 88.1569 32.5204 88.1255 33.6903C88.1563 34.6458 87.9063 35.5898 87.4053 36.4089C87.2188 36.7431 86.9446 37.022 86.6112 37.2163C86.2779 37.4107 85.8976 37.5135 85.5102 37.514C85.0878 37.5337 84.6709 37.4139 84.3257 37.1736C84.1797 37.0605 84.0632 36.9148 83.9857 36.7486C83.9083 36.5823 83.8721 36.4004 83.8803 36.2177C83.8827 36.0119 83.9081 35.8071 83.9562 35.6068C84.0083 35.3737 84.0462 35.2104 84.0746 35.1079C84.1966 34.7627 84.2621 34.4007 84.2688 34.0354C84.2861 33.7584 84.1964 33.4853 84.0177 33.2706C83.9233 33.1792 83.8103 33.1084 83.6863 33.0626C83.5622 33.0168 83.4298 32.9972 83.2976 33.0049C82.9791 33.0155 82.6662 33.0905 82.3785 33.2253C82.0908 33.36 81.8343 33.5517 81.6251 33.7882C81.0582 34.3973 80.6343 35.1216 80.3837 35.9099C80.0603 36.8579 79.9002 37.8524 79.91 38.8523C79.91 41.8117 81.2176 43.2915 83.833 43.2915C85.0526 43.2459 86.238 42.8822 87.268 42.2376C88.0398 41.79 88.7568 41.2564 89.4048 40.6475C89.3411 40.1417 89.3094 39.6325 89.31 39.1227C89.2965 37.4209 89.6824 35.7389 90.4376 34.2079C91.1357 32.7516 92.215 31.5043 93.5646 30.5941C94.898 29.7024 96.4775 29.2352 98.0894 29.2558H98.0752ZM94.01 38.7031C95.3231 38.4427 96.5591 37.8926 97.625 37.0943C98.0249 36.8081 98.3521 36.4349 98.5814 36.0038C98.8107 35.5727 98.9358 35.0954 98.9469 34.6089C98.9669 34.1826 98.8193 33.7652 98.5347 33.4432C98.3938 33.2959 98.2222 33.1805 98.0316 33.1048C97.841 33.0291 97.6361 32.995 97.4308 33.0049C96.4832 33.0049 95.6636 33.5504 95.0002 34.6462C94.3116 35.8599 93.9694 37.2343 94.01 38.6238V38.7031ZM64.4454 38.7031C65.7585 38.4427 66.9945 37.8926 68.0604 37.0943C68.4596 36.8078 68.7862 36.4345 69.0147 36.0034C69.2431 35.5723 69.3673 35.095 69.3776 34.6089C69.3993 34.1832 69.2534 33.7656 68.9701 33.4432C68.8292 33.2959 68.6576 33.1805 68.467 33.1048C68.2764 33.0291 68.0714 32.995 67.8662 33.0049C66.9186 33.0049 66.0989 33.5504 65.4356 34.6462C64.7469 35.8599 64.4048 37.2343 64.4454 38.6238V38.7031ZM98.0846 25.9917C95.807 25.9703 93.5771 26.6341 91.6932 27.8942C91.1199 28.2808 90.5795 28.7128 90.0775 29.1858C89.3695 28.1478 88.4004 27.3079 87.2645 26.7481C86.1286 26.1883 84.8647 25.9277 83.5961 25.9917C81.4747 26.0015 79.4027 26.6223 77.6358 27.7776C76.8596 28.2731 76.1442 28.8552 75.5037 29.5122C75.2045 29.0587 74.8566 28.6382 74.4661 28.2579C73.6767 27.5116 72.7447 26.9269 71.724 26.5379C70.7032 26.1489 69.6142 25.9632 68.52 25.9917C66.2423 25.9703 64.0124 26.6341 62.1285 27.8942C61.4594 28.3421 60.8373 28.8544 60.2713 29.4236C59.7975 27.5584 58.1582 25.9917 55.1164 25.9917C53.7076 25.9287 52.3194 26.3435 51.184 27.1667C50.1589 28.0326 49.4404 29.197 49.1324 30.4915C48.6061 32.2687 48.1946 34.0769 47.9006 35.9052C47.6081 37.5361 47.4497 39.1875 47.4268 40.8434C47.4268 43.4174 47.9906 45.581 49.0993 47.2784C50.459 49.3721 52.7522 50.5425 55.557 50.5425C57.586 50.4928 59.5493 49.8248 61.1762 48.6306C63.1093 49.899 65.5067 50.5425 68.34 50.5425C70.877 50.5515 73.3724 49.9086 75.5795 48.6773L75.9349 48.4768C77.83 49.8757 80.199 50.5471 83.0417 50.5471C85.2491 50.5153 87.4208 49.9941 89.3953 49.0223C89.7111 48.8669 90.027 48.7037 90.3429 48.5327C92.3377 49.9199 94.7385 50.6273 97.1797 50.5471C99.1765 50.5865 101.153 50.1447 102.936 49.2602C104.6 48.4029 106.01 47.1371 107.03 45.5857C107.836 44.3487 108.253 42.9049 108.229 41.4356C108.257 40.3872 107.982 39.3525 107.437 38.4513C107.071 37.8686 106.569 37.3796 105.973 37.0244C106.262 36.0998 106.407 35.1378 106.404 34.1706C106.441 33.0829 106.252 31.9993 105.848 30.9859C105.445 29.9726 104.836 29.0507 104.059 28.2765C103.267 27.5223 102.329 26.9316 101.302 26.5392C100.274 26.1468 99.177 25.9607 98.0752 25.9917H98.0846Z" fill="white"/>
        <path d="M98.445 28.3651C98.0489 28.3662 97.6565 28.2892 97.2912 28.1386C96.9258 27.988 96.5948 27.767 96.3176 27.4884C96.032 27.2098 95.806 26.8777 95.653 26.5117C95.5 26.1457 95.4231 25.7532 95.4269 25.3574C95.4421 24.8936 95.55 24.4373 95.7444 24.0145L99.3736 16.0127C99.6917 15.275 100.218 14.6423 100.89 14.1895C101.536 13.7695 102.295 13.5487 103.069 13.5553C104.126 13.5597 105.142 13.9579 105.912 14.6698C106.325 15.0396 106.655 15.4912 106.878 15.9951C107.102 16.4989 107.215 17.0436 107.21 17.5935C107.183 18.7482 106.755 19.8591 105.997 20.741L100.989 27.0874C100.697 27.4818 100.314 27.8028 99.8719 28.0248C99.4299 28.2467 98.9411 28.3633 98.445 28.3651Z" fill="#ED1C2B"/>
        <path d="M103.069 15.1874C103.714 15.187 104.334 15.4327 104.798 15.8728C105.042 16.0896 105.236 16.3553 105.367 16.6522C105.498 16.949 105.562 17.27 105.556 17.5935C105.526 18.3821 105.223 19.1369 104.699 19.7338L99.686 26.0848C99.5482 26.284 99.3631 26.4471 99.1468 26.5601C98.9305 26.673 98.6895 26.7324 98.4447 26.733C98.2674 26.7329 98.0919 26.6973 97.929 26.6283C97.7661 26.5594 97.6192 26.4585 97.4971 26.332C97.3652 26.2054 97.2611 26.0538 97.191 25.8862C97.1209 25.7186 97.0864 25.5386 97.0896 25.3574C97.1092 25.1054 97.175 24.8589 97.2839 24.63L100.894 16.6749C101.085 16.2226 101.402 15.8328 101.809 15.5511C102.184 15.3083 102.625 15.1816 103.074 15.1874H103.069ZM103.074 11.9232C101.976 11.9187 100.901 12.2334 99.9845 12.8279C99.0561 13.4424 98.3248 14.3045 97.8761 15.3133L94.2658 23.2684V23.315V23.3616C93.9872 23.9805 93.8374 24.648 93.8252 25.3248C93.8246 25.9315 93.9461 26.5323 94.1827 27.0926C94.4194 27.6528 94.7664 28.1614 95.2039 28.5889C95.6367 29.0215 96.1531 29.3645 96.7227 29.5976C97.2923 29.8306 97.9036 29.949 98.5205 29.9458C99.2723 29.946 100.014 29.7728 100.685 29.4399C101.356 29.1071 101.939 28.6239 102.387 28.0293L107.39 21.6876C108.374 20.5208 108.924 19.0584 108.949 17.5422C108.956 16.7711 108.798 16.0072 108.486 15.3001C108.173 14.5931 107.712 13.9589 107.134 13.4387C106.059 12.4476 104.641 11.8958 103.168 11.8953L103.074 11.9232Z" fill="white"/>
        <path d="M50.1647 30.2537C48.9393 32.1444 47.2214 33.6773 45.1899 34.6929C42.7761 35.905 40.1267 36.595 37.4197 36.7167L35.752 45.9308C35.1013 49.4747 33.3403 51.2467 30.4692 51.2467C28.9009 51.2515 27.3708 50.7702 26.0961 49.8711C24.6422 48.8028 23.5306 47.3462 22.8932 45.6743C22.0273 43.4566 21.6167 41.092 21.6851 38.7171C21.6851 33.5412 22.5331 29.1501 24.2293 25.5441C25.9255 21.938 28.206 19.235 31.0709 17.4351C33.8953 15.6474 37.1888 14.7106 40.5467 14.7398C42.6844 14.6786 44.8069 15.1114 46.7439 16.0035C48.3377 16.7513 49.6748 17.9408 50.5911 19.4262C51.469 20.903 51.9196 22.5882 51.8941 24.299C51.9045 26.4054 51.3046 28.471 50.1647 30.2537ZM46.0854 24.6581C46.1136 23.8947 45.9775 23.134 45.686 22.426C45.3945 21.718 44.9542 21.0787 44.3939 20.55C43.2695 19.493 41.5322 18.963 39.1822 18.9599C36.6328 18.9145 34.1549 19.7905 32.2175 21.4219C30.2307 23.082 28.7019 25.3824 27.6311 28.3232C26.5077 31.5656 25.9627 34.9748 26.0202 38.4C25.9984 39.8129 26.1576 41.223 26.494 42.5967C26.7243 43.6149 27.147 44.5814 27.7401 45.4459C28.2423 46.122 28.7303 46.4577 29.1947 46.4577C29.8438 46.4577 30.3318 45.5811 30.6729 43.8231L31.9521 36.5954C30.943 36.4415 30.5023 36.3763 30.6303 36.4042C29.8532 36.2737 29.351 36.0405 29.1189 35.6955C28.8693 35.3005 28.7471 34.8404 28.7682 34.3758C28.7411 33.8857 28.9113 33.4049 29.242 33.0375C29.4182 32.8675 29.6284 32.7354 29.8592 32.6495C30.09 32.5636 30.3364 32.5258 30.5829 32.5386C30.7781 32.5334 30.9733 32.5474 31.1657 32.5806C31.7863 32.6831 32.2648 32.7438 32.587 32.7718C32.9218 30.7822 33.3956 28.1181 34.0084 24.7793C34.0462 24.413 34.1603 24.0582 34.3438 23.7373C34.5272 23.4164 34.7759 23.1361 35.0744 22.9141C35.6578 22.5377 36.3433 22.3443 37.0407 22.3592C37.6916 22.2969 38.344 22.462 38.8837 22.8255C39.0847 23.0211 39.2394 23.2579 39.3369 23.519C39.4343 23.7802 39.4721 24.0592 39.4475 24.3363C39.4519 24.669 39.4265 25.0013 39.3717 25.3296L38.0877 32.7484C43.4195 32.108 46.0854 29.4035 46.0854 24.6348V24.6581Z" fill="#ED1C2B"/>
        <path d="M58.5936 21.4593C57.9183 20.9767 57.0962 20.735 56.2626 20.7738C55.2942 20.7413 54.3477 21.0618 53.6046 21.6738C53.2644 21.9406 52.9909 22.2808 52.8053 22.668C52.6196 23.0552 52.5268 23.4793 52.5338 23.9074C52.5114 24.2919 52.5724 24.6766 52.7129 25.0361C52.8535 25.3955 53.0702 25.7213 53.3488 25.9917C54.0389 26.5384 54.915 26.8053 55.7983 26.7378C56.7761 26.7855 57.7354 26.4635 58.4799 25.8379C58.8175 25.5305 59.0828 25.1542 59.2571 24.7354C59.4314 24.3165 59.5106 23.8652 59.4891 23.4131C59.5095 23.0407 59.4388 22.6689 59.283 22.3289C59.1272 21.989 58.8908 21.6907 58.5936 21.4593Z" fill="#ED1C2B"/>
        <path d="M104.538 40.158C104.46 40.0165 104.346 39.8984 104.205 39.8163C104.065 39.7342 103.905 39.6911 103.742 39.6917C103.533 39.6997 103.329 39.7558 103.147 39.8554C102.964 39.955 102.808 40.0954 102.69 40.2652C102.017 41.1834 101.22 42.0071 100.321 42.7133C99.546 43.2218 98.6269 43.4749 97.6962 43.4361C97.054 43.4816 96.4126 43.3389 95.8527 43.026C95.2928 42.7132 94.8396 42.2442 94.5502 41.6781C97.633 40.9414 99.8156 39.9419 101.098 38.6798C101.711 38.0925 102.196 37.3886 102.523 36.611C102.851 35.8334 103.014 34.9983 103.003 34.1567C103.037 33.5007 102.933 32.8448 102.699 32.2297C102.466 31.6145 102.106 31.0531 101.643 30.5801C101.161 30.1332 100.592 29.786 99.9714 29.5593C99.3504 29.3327 98.6895 29.231 98.0279 29.2605C96.416 29.2399 94.8365 29.7071 93.5031 30.5988C92.1535 31.509 91.0742 32.7563 90.3761 34.2126C89.6209 35.7436 89.235 37.4256 89.2485 39.1274C89.2479 39.6371 89.2796 40.1464 89.3433 40.6522C88.6953 41.2611 87.9783 41.7947 87.2064 42.2423C86.1765 42.8869 84.9911 43.2506 83.7715 43.2962C81.1561 43.2962 79.8485 41.8165 79.8485 38.857C79.8387 37.8571 79.9988 36.8626 80.3223 35.9146C80.5728 35.1263 80.9966 34.4019 81.5636 33.7929C81.7728 33.5564 82.0293 33.3647 82.317 33.23C82.6047 33.0952 82.9176 33.0202 83.2361 33.0095C83.3683 33.0018 83.5007 33.0215 83.6248 33.0673C83.7488 33.1131 83.8617 33.1839 83.9562 33.2753C84.1349 33.49 84.2246 33.7631 84.2073 34.0401C84.2006 34.4054 84.1351 34.7674 84.0131 35.1126C83.9847 35.2152 83.9468 35.3784 83.8946 35.6115C83.8466 35.8118 83.8212 36.0166 83.8188 36.2224C83.8106 36.4051 83.8467 36.587 83.9242 36.7533C84.0016 36.9195 84.1182 37.0652 84.2642 37.1783C84.6094 37.4186 85.0263 37.5385 85.4487 37.5187C85.8361 37.5182 86.2164 37.4154 86.5497 37.2211C86.8831 37.0267 87.1573 36.7478 87.3438 36.4136C87.8448 35.5945 88.0948 34.6505 88.064 33.695C88.1081 32.5203 87.6829 31.3753 86.8795 30.5055C86.4473 30.0794 85.9283 29.7482 85.3567 29.5336C84.7851 29.319 84.1738 29.2259 83.563 29.2605C82.0804 29.2707 80.6336 29.7102 79.4031 30.5242C78.0266 31.4228 76.9152 32.6629 76.1813 34.1193C75.3209 35.801 74.893 37.6648 74.9352 39.5471C74.9338 39.9241 74.9544 40.3009 74.9968 40.6755C74.2925 41.2782 73.5236 41.8035 72.7037 42.2423C71.497 42.9615 70.1279 43.3749 68.7191 43.4454C66.9092 43.4454 65.6773 42.8625 65.0282 41.6874C68.0826 40.9507 70.2526 39.9512 71.5381 38.6891C72.1512 38.1004 72.6359 37.3948 72.9625 36.6155C73.2892 35.8362 73.451 34.9996 73.438 34.1567C73.4719 33.5007 73.3687 32.8448 73.1348 32.2297C72.9009 31.6145 72.5414 31.0531 72.0783 30.5801C71.5962 30.1332 71.0278 29.786 70.4068 29.5593C69.7858 29.3327 69.1249 29.231 68.4632 29.2605C66.8513 29.2399 65.2719 29.7071 63.9385 30.5988C62.5888 31.509 61.5095 32.7563 60.8115 34.2126C60.0611 35.7448 59.6801 37.4267 59.6981 39.1274C59.6954 39.6767 59.735 40.2254 59.8165 40.7688C59.3096 41.3191 58.8689 41.7667 58.4946 42.1071C57.7934 42.7459 57.2107 43.063 56.7463 43.063C56.5289 43.0775 56.312 43.0269 56.1243 42.9179C55.9366 42.8089 55.7867 42.6465 55.6945 42.4522C55.4614 41.8957 55.3562 41.2954 55.3866 40.6942C55.3866 39.7025 55.7024 37.8031 56.3341 34.996C56.6902 33.5378 56.9357 32.0555 57.0685 30.5614C57.0685 29.6941 56.4084 29.2605 55.0881 29.2605C54.432 29.2083 53.777 29.3723 53.2261 29.7268C52.7444 30.1787 52.4139 30.7642 52.2785 31.4055C51.7891 33.0572 51.4061 34.7377 51.1319 36.4369C50.8668 37.8952 50.7179 39.3716 50.6865 40.8527C50.6865 42.7895 51.0687 44.3438 51.8331 45.5158C52.5959 46.6909 53.8183 47.2737 55.5003 47.2737C57.2944 47.2737 59.2006 46.2712 61.2189 44.2661C61.44 44.5609 61.684 44.8384 61.9486 45.0961C63.4489 46.551 65.5605 47.2768 68.2832 47.2737C70.2474 47.2768 72.1782 46.7736 73.8834 45.8142C74.7146 45.3555 75.5068 44.8316 76.2524 44.2474C76.4785 44.5667 76.7321 44.8663 77.0104 45.1427C78.4223 46.5603 80.3965 47.2675 82.9328 47.2644C84.6434 47.2339 86.3248 46.8226 87.8508 46.0614C88.8566 45.5865 89.7922 44.9794 90.632 44.2567C90.8311 44.5414 91.0495 44.8125 91.2858 45.0681C92.6598 46.5323 94.5897 47.2644 97.0755 47.2644C98.5375 47.2978 99.9854 46.9776 101.292 46.3318C102.449 45.7324 103.428 44.8489 104.135 43.7671C104.588 43.0592 104.818 42.2347 104.794 41.3983C104.824 40.9697 104.735 40.5412 104.538 40.158ZM64.3839 38.6285C64.3433 37.239 64.6854 35.8646 65.3741 34.6509C66.0374 33.5551 66.8428 33.0095 67.8046 33.0095C68.0099 32.9997 68.2149 33.0338 68.4055 33.1095C68.5961 33.1852 68.7677 33.3006 68.9086 33.4479C69.1918 33.7703 69.3378 34.1879 69.316 34.6136C69.3058 35.0997 69.1816 35.577 68.9531 36.0081C68.7247 36.4392 68.3981 36.8126 67.9989 37.099C66.933 37.8973 65.697 38.4474 64.3839 38.7078V38.6285ZM93.9485 38.6285C93.9079 37.239 94.2501 35.8646 94.9387 34.6509C95.602 33.5551 96.4075 33.0095 97.3693 33.0095C97.5746 32.9997 97.7795 33.0338 97.9701 33.1095C98.1607 33.1852 98.3324 33.3006 98.4732 33.4479C98.7578 33.7699 98.9054 34.1873 98.8854 34.6136C98.8743 35.1001 98.7492 35.5774 98.5199 36.0085C98.2906 36.4396 97.9633 36.8128 97.5635 37.099C96.4976 37.8973 95.2616 38.4474 93.9485 38.7078V38.6285Z" fill="#ED1C2B"/>
        <path d="M104.732 15.8775C104.267 15.4375 103.648 15.1918 103.003 15.1921C102.554 15.1864 102.113 15.313 101.738 15.5558C101.331 15.8375 101.014 16.2273 100.823 16.6796L97.213 24.6347C97.1042 24.8637 97.0384 25.1101 97.0188 25.3621C97.0156 25.5433 97.0501 25.7233 97.1201 25.8909C97.1902 26.0584 97.2944 26.2102 97.4262 26.3367C97.5483 26.4633 97.6952 26.5641 97.8581 26.6331C98.021 26.702 98.1965 26.7376 98.3738 26.7377C98.6186 26.7371 98.8597 26.6777 99.076 26.5648C99.2922 26.4519 99.4773 26.2887 99.6151 26.0896L104.628 19.7385C105.152 19.1417 105.455 18.3868 105.485 17.5982C105.492 17.2751 105.428 16.9543 105.298 16.6575C105.168 16.3607 104.975 16.0947 104.732 15.8775Z" fill="#ED1C2B"/>
        <path d="M5.99347 30.2537C9.30357 30.2537 11.9869 27.6128 11.9869 24.355C11.9869 21.0972 9.30357 18.4563 5.99347 18.4563C2.68337 18.4563 0 21.0972 0 24.355C0 27.6128 2.68337 30.2537 5.99347 30.2537Z" fill="url(#paint0_linear)"/>
        <path d="M46.3657 63.9999C48.6683 63.9999 50.535 62.1627 50.535 59.8964C50.535 57.6301 48.6683 55.793 46.3657 55.793C44.063 55.793 42.1963 57.6301 42.1963 59.8964C42.1963 62.1627 44.063 63.9999 46.3657 63.9999Z" fill="url(#paint1_linear)"/>
        <path d="M79.4262 18.4608C81.7289 18.4608 83.5956 16.6236 83.5956 14.3574C83.5956 12.0911 81.7289 10.2539 79.4262 10.2539C77.1235 10.2539 75.2568 12.0911 75.2568 14.3574C75.2568 16.6236 77.1235 18.4608 79.4262 18.4608Z" fill="url(#paint2_linear)"/>
        <path d="M102.349 8.46329C104.076 8.46329 105.476 7.08541 105.476 5.3857C105.476 3.68599 104.076 2.30811 102.349 2.30811C100.622 2.30811 99.2217 3.68599 99.2217 5.3857C99.2217 7.08541 100.622 8.46329 102.349 8.46329Z" fill="url(#paint3_linear)"/>
        <path d="M114.496 57.1967C115.936 57.1967 117.102 56.0485 117.102 54.632C117.102 53.2156 115.936 52.0674 114.496 52.0674C113.057 52.0674 111.891 53.2156 111.891 54.632C111.891 56.0485 113.057 57.1967 114.496 57.1967Z" fill="url(#paint4_linear)"/>
        <path d="M122.831 38.2274C125.133 38.2274 127 36.3902 127 34.124C127 31.8577 125.133 30.0205 122.831 30.0205C120.528 30.0205 118.661 31.8577 118.661 34.124C118.661 36.3902 120.528 38.2274 122.831 38.2274Z" fill="url(#paint5_linear)"/>
        <path d="M38.2681 4.61639C39.5634 4.61639 40.6134 3.58298 40.6134 2.3082C40.6134 1.03341 39.5634 0 38.2681 0C36.9729 0 35.9229 1.03341 35.9229 2.3082C35.9229 3.58298 36.9729 4.61639 38.2681 4.61639Z" fill="url(#paint6_linear)"/>
    </g>
    <defs>
        <linearGradient id="paint0_linear" x1="1.26976" y1="20.7272" x2="10.598" y2="28.1317" gradientUnits="userSpaceOnUse">
            <stop stop-color="#407EC1"/>
            <stop offset="1" stop-color="#2BB998"/>
        </linearGradient>
        <linearGradient id="paint1_linear" x1="44.1578" y1="56.4178" x2="48.473" y2="63.4415" gradientUnits="userSpaceOnUse">
            <stop stop-color="#4FBFA4"/>
            <stop offset="1" stop-color="#D7EEEA"/>
        </linearGradient>
        <linearGradient id="paint2_linear" x1="75.2568" y1="14.3574" x2="83.5909" y2="14.3574" gradientUnits="userSpaceOnUse">
            <stop stop-color="#FCE0EC"/>
            <stop offset="1" stop-color="#E55DA2"/>
        </linearGradient>
        <linearGradient id="paint3_linear" x1="99.2217" y1="5.3857" x2="105.476" y2="5.3857" gradientUnits="userSpaceOnUse">
            <stop stop-color="#FDDCD1"/>
            <stop offset="1" stop-color="#F58661"/>
        </linearGradient>
        <linearGradient id="paint4_linear" x1="111.891" y1="54.632" x2="117.102" y2="54.632" gradientUnits="userSpaceOnUse">
            <stop stop-color="#407EC1"/>
            <stop offset="1" stop-color="#1EBAA7"/>
        </linearGradient>
        <linearGradient id="paint5_linear" x1="118.666" y1="34.124" x2="127" y2="34.124" gradientUnits="userSpaceOnUse">
            <stop stop-color="#E54D9C"/>
            <stop offset="1" stop-color="#FCE0EC"/>
        </linearGradient>
        <linearGradient id="paint6_linear" x1="35.9229" y1="2.3082" x2="40.6134" y2="2.3082" gradientUnits="userSpaceOnUse">
            <stop stop-color="#4DBFA3"/>
            <stop offset="1" stop-color="#BAE2DA"/>
        </linearGradient>
        <clipPath id="clip0">
            <rect width="127" height="64" fill="white"/>
        </clipPath>
    </defs>
</svg>
